<svg fill="none" height="100" viewBox="0 0 100 100" width="100" xmlns="http://www.w3.org/2000/svg"><path d="m50 100c27.6142 0 50-22.3858 50-50s-22.3858-50-50-50-50 22.3858-50 50 22.3858 50 50 50z" fill="#e6007a"/><g fill="#fff"><path d="m64.3767 19.1325c0 4.5259-6.4378 8.195-14.3793 8.195-7.9414 0-14.3793-3.6691-14.3793-8.195 0-4.526 6.4379-8.195 14.3793-8.195 7.9415 0 14.3793 3.669 14.3793 8.195z"/><path d="m64.3767 80.8675c0 4.526-6.4378 8.195-14.3793 8.195-7.9414 0-14.3793-3.669-14.3793-8.195 0-4.5259 6.4379-8.195 14.3793-8.195 7.9415 0 14.3793 3.6691 14.3793 8.195z"/><path d="m29.9529 38.6638c3.9707-6.7362 3.9456-14.0314-.056-16.2944s-10.4644 1.3632-14.4352 8.0994c-3.9707 6.7361-3.9456 14.0314.056 16.2944 4.0016 2.2629 10.4644-1.3633 14.4352-8.0994z"/><path d="m84.4823 53.2403c4.0016 2.263 4.0267 9.5583.056 16.2944-3.9708 6.7362-10.4336 10.3624-14.4352 8.0994-4.0017-2.263-4.0267-9.5582-.056-16.2944 3.9708-6.7361 10.4336-10.3623 14.4352-8.0994z"/><path d="m29.8996 77.6305c4.0016-2.263 4.0266-9.5582.0559-16.2943-3.9707-6.7362-10.4336-10.3624-14.4352-8.0994s-4.0267 9.5582-.0559 16.2943c3.9707 6.7362 10.4335 10.3624 14.4352 8.0994z"/><path d="m84.5338 30.466c3.9707 6.7361 3.9456 14.0314-.056 16.2944-4.0016 2.2629-10.4644-1.3633-14.4352-8.0994-3.9707-6.7362-3.9457-14.0314.056-16.2944 4.0016-2.263 10.4644 1.3632 14.4352 8.0994z"/></g></svg>