<svg fill="none" height="100" viewBox="0 0 100 100" width="100" xmlns="http://www.w3.org/2000/svg"><path d="m100 50c0 27.6142-22.3858 50-50 50s-50-22.3858-50-50 22.3858-50 50-50 50 22.3858 50 50z" fill="#f00500"/><path d="m32.5943 25.6281c1.9518 2.0103 3.74 4.1891 5.3296 6.5124l.5025-.1685c2.8986-.9751 5.9023-1.577 8.9294-1.7816.9117-.0723 4.3128-.0723 5.4231 0 3.3544.2287 5.9257.7463 8.8476 1.7936.1169.0481.2221.0843.3273.1204 1.6479-2.3113 3.4829-4.4781 5.5049-6.4643-9.7008-5.116-21.0496-5.73-31.2062-1.6973-1.0869.4213-2.1505.9148-3.1907 1.4445z" fill="#f00500"/><path d="m14.5017 71.2873c1.4727 4.3215 3.6816 8.3301 6.5451 11.821 1.5545 1.8779 3.2726 3.5993 5.1192 5.1642 4.3245 3.5873 9.3736 6.1513 14.7616 7.4996 5.9607 1.4806 12.1786 1.4806 18.1393 0 5.3997-1.3483 10.4371-3.9123 14.7616-7.4996 1.8466-1.5649 3.5647-3.2863 5.1192-5.1642 8.2398-10.0274 10.741-23.7986 6.5451-36.2095-.7947-2.2992-1.7882-4.5142-2.9803-6.6208-.5494-.963-1.2273-2.0464-1.5545-2.4918-1.122 4.9716-2.5012 9.3413-3.0154 10.9182.035.0843.0818.1806.1285.2649 2.7233 5.6818 4.1959 11.159 4.5465 16.9852 0 .0723.0117.1565.0117.2288.0935 1.7454.0468 2.576-.2337 3.6715-.8766 3.4307-3.5765 7.2106-7.8074 10.9182-6.9308 6.067-16.3277 10.4488-23.4455 10.9544-7.4217.5176-18.3731-3.9484-25.6662-10.4729-1.1454-1.0473-2.2207-2.1547-3.2258-3.3344-.7247-.8667-1.8-2.3594-1.7181-2.3594.0233 0 0-.0241-.0468-.0482-.0351-.0241-.0701-.0602-.0467-.0842.0117-.0121-.0117-.0482-.0468-.0602-.0351-.0121-.0584-.0361-.0467-.0602.0116-.0241 0-.0482-.0468-.0602-.0351-.0121-.0467-.0482-.035-.0722.0116-.0241-.0001-.0482-.0234-.0482-.0234 0-.0468-.0361-.0468-.0602s-.0234-.0602-.0467-.0602c-.0234 0-.0468-.024-.0468-.0481-.035-.0963-.0935-.1926-.1519-.2769-.1753-.2769-.8766-1.5649-.9701-1.7816-.6662-1.5528-1.087-2.9372-1.2856-4.3215-.0935-.6621-.152-1.8779-.1052-2.1668.0116-.0482.0116-.1324.0233-.2649.0234-.2407.0351-.6018.0585-.963.0233-.5417.0701-1.3001.1052-1.6732.5025-5.4652 1.8583-9.9312 4.4296-14.662.1052-.1806.1987-.3611.2571-.5056.0234-.0361.0351-.0722.0468-.0963-.3623-1.1195-1.8467-5.8022-3.0271-11.159l-.0234.0241-.1753.2407c-.3039.4213-1.1104 1.6733-1.4727 2.2752-1.6479 2.7686-2.9336 5.742-3.8452 8.8477-2.1155 7.4755-1.9402 15.4445.5376 22.8116z" fill="#f00500"/><g fill="#000"><path d="m29.6723 56.9021c.0351.1926.5844.7705 1.1337 1.1918 1.613 1.2158 4.4998 2.3473 7.4335 2.889 1.6713.313 3.3427.3612 3.8453.1084.3272-.1685.374-.301.2571-.7343-.2455-.9029-1.0402-1.8899-2.2791-2.8169-.6312-.4694-3.1908-2.0704-4.383-2.7446-1.9635-1.1074-3.553-1.7695-4.6283-1.926-.339-.0482-.748-.0602-.8766 0-.2104.0843-.4441.7223-.5376 1.4927-.0468.4093-.0234 2.2149.035 2.5399z"/><path d="m57.2085 60.8866c.0702.1445.4208.301.8182.3612s1.6129.024 2.3025-.0602c2.4778-.3371 5.1075-1.1195 7.0243-2.0826 1.0753-.5417 1.8467-1.0834 2.4194-1.6732l.3272-.3491.0351-.4574c.0584-.7945.0467-2.0464-.0468-2.4918-.0584-.3732-.187-.7344-.3623-1.0594-.0935-.1203-.0935-.1203-.5143-.1203-.5142 0-.9467.0842-1.6479.3129-1.4376.4575-3.5765 1.5649-6.1828 3.178-2.1506 1.3242-2.957 1.9742-3.5765 2.865-.4207.5537-.7012 1.3362-.5961 1.5769z"/><path d="m40.6587 77.6432c0 .0361.1403.6139.3156 1.3001.1753.6861.3155 1.2398.3155 1.2639.1286.0121.2455.0241.3741.0121h.374l.5142 1.2519c.2805.6861.5377 1.3241.5727 1.4204l.0702.1686.4908-.8186v-3.3345l.0935.0241c.1987.0482 1.6129.2408 2.2324.301 2.5596.2648 5.1309.2046 7.6789-.1686.409-.0602.7597-.1083.7713-.0963.0117.0121 0 .7825-.0233 1.7335l-.0351 1.7093.1987.313c.1052.1685.2104.313.2104.325.035.0361.1519-.1565.4207-.7102.2922-.5778.5026-1.1917.6545-1.8297l.0819-.3491.3623.0241.3623.0361.0935-.4454c.0468-.2408.1052-.614.1286-.8186l.035-.3852.3039-.2769c.1753-.1565.3506-.313.3857-.337.0585-.0482.0818-.1325.0818-.2047v-.1444l-2.9219.024-.0935.313-.5026.0241c-.2805.012-1.1688.0361-1.9635.0602l-1.461.0361-.374-.6019-.3857-.6019h-.4909l.0234-2.5038.6428-.2889c2.0688-.939 3.2843-2.0103 3.7401-3.3104.0935-.2648.0935-.3611.1169-1.5649.0117-1.1918.0117-1.3001-.0701-1.5649-.1637-.6019-.6195-1.0714-1.2039-1.2279-.1987-.0602-.7246-.0602-3.4829-.0602l-3.2492.0121-.3624.1805c-.4324.2167-.6311.3732-.8765.7103-.2805.3852-.3624.6861-.3624 1.4204 0 1.0473.0702 1.9501.1753 2.3113.152.4935.3858.963.6779 1.3843.5844.7704 1.648 1.5408 2.6181 1.8899l.2805.1084-.0234 2.5279-.5142.0482-.3507.5417-.3389.5416h-1.5662c-.8649 0-1.6246.0121-1.6947.0241-.1169.0241-.1402.0121-.2571-.1926l-.1403-.2167h-1.3441c-1.0051-.0481-1.309-.024-1.309.0121z"/><path d="m46.8299 81.098c.2221.1324.374.1926.4091.1685.035-.012.1987-.1565.374-.2889l.3155-.2648.3273.3611c.7129.7945.7363.8306.9467.8427.3273.0361.3974-.0241.7948-.6381.2103-.3129.374-.5778.374-.5778s.1519-.0241.3272-.0361l.3273-.0361.3039.65.2688-.0842c.2104-.0723.4207-.1565.6194-.2528l.3506-.1806v-.6862l-6.2178.0241-.0117.325c-.0117.3853-.0234.3732.4909.6742z"/></g><path d="m17.6106 66.4119c.0117-.0481.0117-.1324.0234-.2648 2.8051-.313 10.8111-.5056 18.2445 5.8142 0 0 2.396-11.3155 13.6162-11.3155s15.381 11.3155 15.381 11.3155c6.288-6.9698 14.7031-6.4642 17.7419-6.0068 0 .0723.0117.1565.0117.2288.0935 1.7454.0468 2.576-.2337 3.6715-.8766 3.4307-3.5765 7.2106-7.8074 10.9182-6.9308 6.067-16.3277 10.4488-23.4455 10.9544-7.4217.5176-18.3731-3.9484-25.6662-10.4729-1.1454-1.0473-2.2207-2.1547-3.2258-3.3344-.7247-.8667-1.8-2.3594-1.7181-2.3594.0233 0 0-.0241-.0468-.0482-.0351-.0241-.0701-.0602-.0467-.0842.0117-.0121-.0117-.0482-.0468-.0602-.0351-.0121-.0584-.0361-.0467-.0602.0116-.0241 0-.0482-.0468-.0602-.0351-.0121-.0467-.0482-.035-.0722.0116-.0241-.0001-.0482-.0234-.0482-.0234 0-.0468-.0361-.0468-.0602s-.0234-.0602-.0467-.0602c-.0234 0-.0468-.024-.0468-.0481-.035-.0963-.0935-.1926-.1519-.2769-.1753-.2769-.8766-1.5649-.9701-1.7816-.6662-1.5528-1.087-2.9372-1.2856-4.3215-.0702-.6621-.1286-1.878-.0819-2.1669zm29.2193 14.6861c.2221.1324.374.1926.4091.1685.035-.012.1987-.1565.374-.2889l.3155-.2648.3273.3611c.7129.7945.7363.8306.9467.8427.3273.0361.3974-.0241.7948-.6381.2103-.3129.374-.5778.374-.5778s.1519-.0241.3272-.0361l.3273-.0361.3039.65.2688-.0842c.2104-.0723.4207-.1565.6194-.2528l.3506-.1806v-.6862l-6.2178.0241-.0117.325c-.0117.3853-.0234.3732.4909.6742zm-5.8439-2.1668c.1754.6861.3156 1.2399.3156 1.264.1286.012.2455.024.374.012h.374l.5025 1.264c.2805.6861.5377 1.3241.5727 1.4204l.0702.1686.4908-.8186v-3.3345l.0935.0241c.1987.0482 1.6129.2408 2.2324.301 2.5596.2648 5.1309.2046 7.6789-.1686.409-.0602.7597-.1083.7713-.0963.0117.0121 0 .7825-.0233 1.7335l-.0351 1.7093.1987.313c.1052.1685.2104.313.2104.325.035.0361.1519-.1565.4207-.7102.2922-.5778.5026-1.1917.6545-1.8297l.0819-.3491.3623.0241.3623.0361.0935-.4454c.0468-.2408.1052-.614.1286-.8186l.035-.3852.3039-.2769c.1753-.1565.3506-.313.3857-.337.0585-.0482.0818-.1325.0818-.2047v-.1444l-2.9219.024-.0935.313-.5026.0241c-.2805.012-1.1688.0361-1.9635.0602l-1.461.0361-.374-.6019-.3857-.6019h-.4909l.0234-2.5038.6428-.2889c2.0688-.939 3.2843-2.0103 3.7401-3.3104.0935-.2648.0935-.3611.1169-1.5649.0117-1.1918.0117-1.3001-.0701-1.5649-.1637-.6019-.6195-1.0714-1.2039-1.2279-.1987-.0602-.7246-.0602-3.4829-.0602l-3.2492.0121-.3624.1805c-.4324.2167-.6311.3732-.8765.7103-.2805.3852-.3624.6861-.3624 1.4204 0 1.0473.0702 1.9501.1753 2.3113.152.4935.3858.963.6779 1.3843.5844.7704 1.648 1.5408 2.6181 1.8899l.2805.1084-.0234 2.5279-.5142.0482-.3507.5417-.3389.5416h-1.5662c-.8649 0-1.6246.0121-1.6947.0241-.1169.0241-.1402.0121-.2571-.1926l-.1403-.2167h-1.3441c-1.0402 0-1.344.012-1.344.0482.0351-.0121.187.5778.3623 1.2519z" fill="#fff"/><path d="m17.7041 65.1841c.0234-.5417.0702-1.3001.1052-1.6733.5026-5.4651 1.8584-9.9311 4.4297-14.6619.1051-.1806.1987-.3612.2571-.5056.0234-.0361.0351-.0723.0468-.0963-.3624-1.1195-1.8467-5.8022-3.0272-11.159-1.6012-7.2708-2.618-15.7695.4909-18.3215 0 0 5.3764-.4092 12.576 6.8616 1.9518 2.0103 3.7401 4.1891 5.3296 6.5124l.5025-.1686c2.8986-.975 5.9023-1.5769 8.9295-1.7815.9116-.0723 4.3127-.0723 5.423 0 3.3544.2287 5.9257.7463 8.8476 1.7936.1169.0481.2221.0842.3273.1204 1.648-2.3113 3.4829-4.4781 5.5049-6.4643 7.4918-7.3069 13.0669-6.8856 13.0669-6.8856 3.2959 2.6363 2.1739 11.5201.4675 19.0317-1.1221 4.9716-2.5012 9.3413-3.0155 10.9182.0351.0843.0819.1806.1286.2648 2.7232 5.6818 4.1959 11.159 4.5465 16.9853-3.0505-.4575-11.4539-.9751-17.7536 6.0068 0 0-4.1608-11.3155-15.381-11.3155s-13.6162 11.3155-13.6162 11.3155c-7.4334-6.3198-15.4395-6.1151-18.2445-5.8142.0117-.2408.0351-.6019.0584-.963zm58.0529-21.0179s4.3712-11.2553 3.2491-17.6835c-.187-1.0834-.5376-2.0343-1.0869-2.7566 0 0-4.9556.5056-12.95 9.6543 0 0 1.5194.7583 3.5531 2.3714 0 0 .0117.012.0234.012 2.2089 1.7455 5.0373 4.5142 7.2113 8.4024zm-18.5485 16.7204c.0702.1445.4208.301.8182.3612s1.6129.024 2.3025-.0602c2.4778-.3371 5.1075-1.1195 7.0243-2.0826 1.0753-.5417 1.8467-1.0834 2.4194-1.6732l.3272-.3491.0351-.4574c.0584-.7945.0467-2.0464-.0468-2.4918-.0584-.3732-.187-.7344-.3623-1.0594-.0935-.1203-.0935-.1203-.5143-.1203-.5142 0-.9467.0842-1.6479.3129-1.4376.4575-3.5765 1.5649-6.1828 3.178-2.1506 1.3242-2.957 1.9742-3.5765 2.865-.4207.5537-.7012 1.3362-.5961 1.5769zm-27.5362-3.9845c.0351.1926.5844.7705 1.1337 1.1918 1.613 1.2158 4.4998 2.3473 7.4335 2.889 1.6713.313 3.3427.3612 3.8453.1084.3272-.1685.374-.301.2571-.7343-.2455-.9029-1.0402-1.8899-2.2791-2.8169-.6312-.4694-3.1908-2.0704-4.383-2.7446-1.9635-1.1074-3.553-1.7695-4.6283-1.926-.339-.0482-.748-.0602-.8766 0-.2104.0843-.4441.7223-.5376 1.4927-.0468.4093-.0234 2.2149.035 2.5399zm1.9402-21.1503.0234-.012c1.9635-1.6131 3.4362-2.3715 3.4362-2.3715-7.7256-9.1487-12.5059-9.6542-12.5059-9.6542-.5259.7343-.8649 1.6732-1.0519 2.7566-1.0869 6.4281 3.1323 17.6955 3.1323 17.6955 1.7649-3.2382 4.1375-6.1032 6.9659-8.4144z" fill="#ffa409"/><path d="m21.5026 26.4707c.9117-.1204 5.2245-.1445 10.1099 9.2811l.0234-.012c1.9635-1.6131 3.4362-2.3715 3.4362-2.3715-7.7256-9.1487-12.5059-9.6542-12.5059-9.6542-.5376.7343-.8766 1.6732-1.0636 2.7566z" fill="#ff9300"/><path d="m24.635 44.1662c1.7765-3.2502 4.1374-6.1032 6.9775-8.4144-4.8854-9.4256-9.1865-9.4015-10.1099-9.2811-1.0869 6.4402 3.1324 17.6955 3.1324 17.6955z" fill="#ff8300"/><path d="m21.3273 26.5068c.0585-.012.1169-.0241.1753-.0361z" fill="#ff8300"/><path d="m64.9692 33.3683s1.5194.7584 3.5531 2.3715c0 0 .0117.012.0234.012 5.0607-9.4376 9.5137-9.4015 10.4721-9.2811-.187-1.0834-.5376-2.0344-1.0869-2.7566-.0117 0-4.9673.5055-12.9617 9.6542z" fill="#ff9300"/><path d="m68.5339 35.7518c2.2207 1.7575 5.0491 4.5141 7.2231 8.4144 0 0 4.3712-11.2553 3.2491-17.6955-.9467-.1204-5.4114-.1444-10.4722 9.2811z" fill="#ff8300"/><path d="m79.0061 26.4707c.0585.012.1286.0241.187.0361z" fill="#ff8300"/><path d="m36.4629 50.4138s3.7401.2408 3.2726-2.7687c-.4675-3.0094-3.3895-3.3706-4.2076-3.2502s-4.0907 1.3242-3.5063 3.8521 1.4025 2.0464 1.87 2.1668 2.5713 0 2.5713 0z" fill="#fff"/><path d="m64.0459 50.4138s3.74.2408 3.2725-2.7687c-.4675-3.0094-3.3894-3.3706-4.2075-3.2502-.8182.1204-4.0907 1.3242-3.5063 3.8521s1.4025 2.0464 1.87 2.1668 2.5713 0 2.5713 0z" fill="#fff"/></svg>