<svg fill="none" height="32" viewBox="0 0 32 32" width="32" xmlns="http://www.w3.org/2000/svg"><path d="m16 32c8.8366 0 16-7.1634 16-16 0-8.83656-7.1634-16-16-16-8.83656 0-16 7.16344-16 16 0 8.8366 7.16344 16 16 16z" fill="#2c7df7"/><path d="m18.335 28c-1.5546 0-2.6894-.3953-3.4042-1.186-.6622-.6692-1.0464-1.588-1.0688-2.5555-.008-.294.0565-.585.1872-.8447.122-.2243.2982-.4104.5106-.5394.2469-.13.519-.1976.7949-.1976.2758 0 .548.0676.7948.1976.2121.1285.3874.3148.5077.5394.1345.2584.2015.5499.1939.8447.0139.3519-.0817.6991-.2723.9883-.1588.236-.3858.4114-.647.4998.2554.3433.6168.5811 1.0212.6721.4525.1387.9211.2101 1.3923.212.6238.0057 1.2347-.1872 1.7532-.5535.5378-.4011.9388-.9744 1.1437-1.6351.2598-.7863.3865-1.6146.3745-2.4472.0209-.8681-.1178-1.7322-.4085-2.5445-.2187-.6497-.6338-1.2053-1.1813-1.5812-.5088-.34-1.0995-.5184-1.7017-.5139-.5247.0469-1.0307.2283-1.4741.5283l-1.093.5785v-.5785l4.9122-6.9567h-6.8083v7.219c-.0192.521.1113 1.0359.3745 1.4771.1273.1922.2995.3465.4999.4478.2003.1014.4221.1464.6438.1307.4097-.0088.8058-.1561 1.1301-.4204.3676-.2845.6875-.6319.9464-1.0279.0233-.0694.0663-.1296.1231-.1724.0456-.0416.1039-.0646.1641-.0647.1183.0114.2302.0617.3201.1437.1137.1342.1757.3086.1735.4887-.0131.1211-.0336.2411-.0613.3594-.2418.618-.6472 1.1493-1.1677 1.5304-.4833.3453-1.0542.5284-1.6378.5253-1.4741 0-2.4953-.3067-3.0636-.92-.2921-.339-.5172-.7361-.6622-1.1681-.1449-.4319-.2068-.8901-.182-1.3476v-7.201h-3.4629v-1.34134h3.479v-3.05829l-.7965-.84146v-.68581h2.3113l.8682.47444v4.11112l8.9936-.02888.8954.94872-5.5147 5.8502c.3331-.1414.684-.231 1.0416-.2659.7077.0327 1.3982.2408 2.0156.6074.715.3587 1.3176.9264 1.7362 1.6357.3752.6004.6408 1.2695.783 1.9729.117.5549.1797 1.1209.1873 1.6893.0036 1.0847-.2294 2.1557-.6809 3.13-.4281.9436-1.1488 1.7043-2.0425 2.1564-.9149.4759-1.9217.7218-2.9416.7186z" fill="#fff"/></svg>